<?xml version="1.0" encoding="UTF-8" standalone="no"?>
<svg
   xmlns:dc="http://purl.org/dc/elements/1.1/"
   xmlns:cc="http://creativecommons.org/ns#"
   xmlns:rdf="http://www.w3.org/1999/02/22-rdf-syntax-ns#"
   xmlns:svg="http://www.w3.org/2000/svg"
   xmlns="http://www.w3.org/2000/svg"
   xmlns:sodipodi="http://sodipodi.sourceforge.net/DTD/sodipodi-0.dtd"
   xmlns:inkscape="http://www.inkscape.org/namespaces/inkscape"
   viewBox="0 0 1757.55 340.62859"
   version="1.1"
   id="svg60"
   sodipodi:docname="acedro-logo.svg"
   width="1757.55"
   height="340.6286"
   inkscape:version="0.92.4 (5da689c313, 2019-01-14)">
  <metadata
     id="metadata33">
    <rdf:RDF>
      <cc:Work
         rdf:about="">
        <dc:format>image/svg+xml</dc:format>
        <dc:type
           rdf:resource="http://purl.org/dc/dcmitype/StillImage" />
        <dc:title />
      </cc:Work>
    </rdf:RDF>
  </metadata>
  <sodipodi:namedview
     id="namedview62"
     pagecolor="#ffffff"
     bordercolor="#666666"
     borderopacity="1.0"
     inkscape:pageshadow="2"
     inkscape:pageopacity="0.0"
     inkscape:pagecheckerboard="0"
     showgrid="false"
     inkscape:zoom="0.68993347"
     inkscape:cx="1133.0174"
     inkscape:cy="21.014233"
     inkscape:window-width="1366"
     inkscape:window-height="704"
     inkscape:window-x="0"
     inkscape:window-y="27"
     inkscape:window-maximized="1"
     inkscape:current-layer="svg60" />
  <defs
     id="defs4">
    <style
       id="style2">.cls-1{fill: #26ace1;}.cls-2{fill: #0b77bd;}</style>
  </defs>
  <g
     id="g902">
    <g
       id="g858">
      <path
         class="cls-2"
         d="m 692.49,181.88859 -8.7,19.75 h -15.64 l 38.24,-86.8 H 722 l 38.25,86.8 h -15.61 l -8.64,-19.75 z m 37.51,-13.53 -15.78,-35.77 -15.77,35.77 z"
         id="path14"
         style="fill:#ff3c00;fill-opacity:1" />
      <path
         class="cls-2"
         d="m 772.33,201.63859 v -86.8 H 787 v 72.89 h 39.6 v 13.91 z"
         id="path16"
         style="fill:#ff3c00;fill-opacity:1" />
      <path
         class="cls-2"
         d="m 880.61,201.63859 h -38 v -86.8 h 33.78 a 48.62,48.62 0 0 1 15.21,2.15 q 6.4,2.12 9.5,5.71 a 22.17,22.17 0 0 1 6,15.15 q 0,10.19 -6.45,15.15 a 28.75,28.75 0 0 1 -3.23,2.17 c -0.58,0.29 -1.62,0.77 -3.11,1.43 a 22.81,22.81 0 0 1 12.86,7.26 20.28,20.28 0 0 1 4.78,13.72 23.32,23.32 0 0 1 -6.21,16 q -7.38,8.07 -25.13,8.06 z m -23.34,-50.79 h 18.62 q 15.9,0 15.9,-10.81 c 0,-4.13 -1.29,-7.12 -3.85,-8.94 -2.56,-1.82 -6.54,-2.73 -11.92,-2.73 h -18.75 z m 0,37.25 h 23 q 8.07,0 12.36,-2.55 4.29,-2.55 4.28,-9.62 0,-11.55 -18.5,-11.55 h -21.14 z"
         id="path18"
         style="fill:#ff3c00;fill-opacity:1" />
      <path
         class="cls-2"
         d="m 991.26,114.83859 v 13.78 h -46.32 v 23 h 41.6 v 13 h -41.6 v 23.22 h 47.81 v 13.79 h -62.47 v -86.8 z"
         id="path20"
         style="fill:#ff3c00;fill-opacity:1" />
      <path
         class="cls-2"
         d="m 1080.79,142.98859 q 0,21.5 -18.76,27.07 l 22.73,31.55 h -18.63 l -20.74,-29.19 h -19.24 v 29.19 h -14.66 v -86.8 h 32.29 q 19.86,0 28.44,6.7 8.58,6.7 8.57,21.48 z m -19.5,12.3 q 4.47,-3.86 4.47,-12.36 0,-8.5 -4.59,-11.67 -4.61,-3.17 -16.4,-3.17 h -18.62 v 31.05 h 18.25 q 12.42,0.03 16.89,-3.82 z"
         id="path22"
         style="fill:#ff3c00;fill-opacity:1" />
      <path
         class="cls-2"
         d="m 1133.44,128.24859 v 73.39 h -14.66 v -73.39 h -26.32 v -13.41 h 67.3 v 13.41 z"
         id="path24"
         style="fill:#ff3c00;fill-opacity:1" />
      <path
         class="cls-2"
         d="m 1245.94,189.64859 q -13.17,12.85 -32.53,12.85 -19.36,0 -32.54,-12.85 -13.15,-12.85 -13.16,-32 -0.01,-19.15 13.16,-32 13.16,-12.86 32.54,-12.86 19.38,0 32.53,12.86 13.15,12.85 13.16,32 0.01,19.15 -13.16,32 z m -10.74,-54.32 a 30.44,30.44 0 0 0 -43.59,0 32.4,32.4 0 0 0 0,44.57 30.44,30.44 0 0 0 43.59,0 32.4,32.4 0 0 0 0,-44.57 z"
         id="path26"
         style="fill:#ff3c00;fill-opacity:1" />
      <path
         class="cls-2"
         d="m 1351.24,188.34859 a 30.61,30.61 0 0 0 13,-2.55 44.8,44.8 0 0 0 11.42,-8.13 l 9.44,9.69 q -13.79,15.27 -33.46,15.27 -19.67,0 -32.64,-12.64 -13,-12.66 -13,-32 0,-19.34 13.23,-32.29 13.21,-12.91 33.4,-12.92 a 43.66,43.66 0 0 1 33.71,14.91 l -9.31,10.18 a 40.54,40.54 0 0 0 -11.73,-8.32 32.94,32.94 0 0 0 -13,-2.36 q -13.17,0 -22.1,8.51 -8.93,8.51 -9,21.73 0,13.22 8.88,22.1 a 28.77,28.77 0 0 0 21.16,8.82 z"
         id="path28"
         style="fill:#ff3c00;fill-opacity:1" />
      <path
         class="cls-2"
         d="m 1464,114.83859 v 13.78 h -46.31 v 23 h 41.59 v 13 h -41.59 v 23.22 h 47.8 v 13.79 H 1403 v -86.8 z"
         id="path30"
         style="fill:#ff3c00;fill-opacity:1" />
      <path
         class="cls-2"
         d="m 1549.92,126.19859 q 12.54,11.36 12.55,31.6 0.01,20.24 -12.17,32 -12.18,11.81 -37.26,11.8 h -28.81 v -86.8 H 1514 q 23.38,0.04 35.92,11.4 z m -2.23,32 q 0,-29.79 -34.15,-29.8 h -14.65 v 59.48 h 16.26 q 15.78,0 24.16,-7.51 8.38,-7.51 8.38,-22.2 z"
         id="path32"
         style="fill:#ff3c00;fill-opacity:1" />
      <path
         class="cls-2"
         d="m 1650.63,142.98859 q 0,21.5 -18.75,27.07 l 22.72,31.55 H 1636 l -20.74,-29.19 H 1596 v 29.19 h -14.65 v -86.8 h 32.29 q 19.86,0 28.43,6.7 8.57,6.7 8.56,21.48 z m -19.49,12.3 q 4.45,-3.86 4.46,-12.36 0.01,-8.5 -4.6,-11.64 -4.59,-3.17 -16.39,-3.17 H 1596 v 31.05 h 18.26 q 12.4,0 16.88,-3.85 z"
         id="path34"
         style="fill:#ff3c00;fill-opacity:1" />
      <path
         class="cls-2"
         d="m 1744.38,189.64859 q -13.16,12.85 -32.53,12.85 -19.37,0 -32.54,-12.85 -13.15,-12.85 -13.16,-32 -0.01,-19.15 13.16,-32 13.17,-12.86 32.54,-12.86 19.37,0 32.53,12.86 13.17,12.85 13.17,32 0,19.15 -13.17,32 z m -10.74,-54.32 a 30.43,30.43 0 0 0 -43.58,0 32.4,32.4 0 0 0 0,44.57 30.43,30.43 0 0 0 43.58,0 32.4,32.4 0 0 0 0,-44.57 z"
         id="path36"
         style="fill:#ff3c00;fill-opacity:1" />
    </g>
    <g
       id="g870">
      <path
         d="m 833.31,249.05859 h 3.52 l 17.57,42.29 H 850 l -5.48,-13.22 h -19 l -5.42,13.22 h -4.47 z m 10.25,25.79 -8.56,-20.86 -8.64,20.91 z"
         id="path38"
         style="fill:#ffffff" />
      <path
         d="m 902.94,291.34859 v -42.29 h 17.87 a 11.05,11.05 0 0 1 5,1.16 13.59,13.59 0 0 1 4,3 14,14 0 0 1 2.59,4.26 13.34,13.34 0 0 1 0.92,4.82 14.52,14.52 0 0 1 -0.68,4.44 13.89,13.89 0 0 1 -1.91,3.81 11.46,11.46 0 0 1 -3,2.86 10.51,10.51 0 0 1 -3.87,1.58 l 10.36,16.32 h -4.7 l -10,-15.61 h -12.41 v 15.61 z m 4.17,-19.3 h 13.82 a 7.19,7.19 0 0 0 3.37,-0.8 8.09,8.09 0 0 0 2.59,-2.18 10.7,10.7 0 0 0 1.67,-3.09 11.33,11.33 0 0 0 0.59,-3.64 10.11,10.11 0 0 0 -0.68,-3.66 10.39,10.39 0 0 0 -1.85,-3.07 8.74,8.74 0 0 0 -2.74,-2.08 7.39,7.39 0 0 0 -3.31,-0.78 h -13.46 z"
         id="path40"
         style="fill:#ffffff" />
      <path
         d="m 1012.9,287.59859 a 20.11,20.11 0 0 1 -5.33,3 17.88,17.88 0 0 1 -6.23,1.07 17.67,17.67 0 0 1 -8.07,-1.85 20.65,20.65 0 0 1 -6.27,-4.83 21.53,21.53 0 0 1 -4,-6.85 22.54,22.54 0 0 1 -1.43,-7.93 21.9,21.9 0 0 1 1.52,-8.1 22.29,22.29 0 0 1 4.2,-6.85 20.28,20.28 0 0 1 6.31,-4.73 17.82,17.82 0 0 1 7.86,-1.76 17.44,17.44 0 0 1 8.07,1.88 20.29,20.29 0 0 1 6.26,4.91 22.88,22.88 0 0 1 4,6.88 22.35,22.35 0 0 1 1.43,7.83 22.05,22.05 0 0 1 -1.58,8.28 21.74,21.74 0 0 1 -4.38,6.91 l 5,5.9 h -4.11 z m -11.56,0.29 a 13.69,13.69 0 0 0 4.95,-0.86 16,16 0 0 0 4.17,-2.35 l -5.31,-6.32 h 4.12 l 3.39,4.06 a 18.65,18.65 0 0 0 3.22,-5.69 19.51,19.51 0 0 0 0,-13.17 18.36,18.36 0 0 0 -3.25,-5.63 16.7,16.7 0 0 0 -4.94,-3.93 13.54,13.54 0 0 0 -6.32,-1.49 13.89,13.89 0 0 0 -6.49,1.52 15.48,15.48 0 0 0 -4.94,4 18.63,18.63 0 0 0 -3.13,5.69 19.83,19.83 0 0 0 0,13.11 17.91,17.91 0 0 0 3.22,5.65 15.85,15.85 0 0 0 4.94,3.94 13.85,13.85 0 0 0 6.37,1.47 z"
         id="path42"
         style="fill:#ffffff" />
      <path
         d="m 1088.54,287.88859 a 13.21,13.21 0 0 0 6.64,-1.51 12,12 0 0 0 4.23,-4 16,16 0 0 0 2.21,-5.62 32.54,32.54 0 0 0 0.62,-6.38 v -21.32 h 4.17 v 21.32 a 33.42,33.42 0 0 1 -1,8.13 19.28,19.28 0 0 1 -3.07,6.76 15.08,15.08 0 0 1 -5.51,4.65 18.1,18.1 0 0 1 -8.28,1.73 17.8,17.8 0 0 1 -8.42,-1.82 15.38,15.38 0 0 1 -5.51,-4.79 19.21,19.21 0 0 1 -3,-6.79 34.16,34.16 0 0 1 -0.9,-7.87 v -21.32 h 4.11 v 21.32 a 31.71,31.71 0 0 0 0.66,6.5 16.35,16.35 0 0 0 2.23,5.59 12,12 0 0 0 4.2,3.94 13.14,13.14 0 0 0 6.62,1.48 z"
         id="path44"
         style="fill:#ffffff" />
      <path
         d="m 1158.83,291.34859 v -42.29 h 4.17 v 42.29 z"
         id="path46"
         style="fill:#ffffff" />
      <path
         d="M 1246.09,252.74859 H 1231 v 38.6 h -4.17 v -38.6 h -15.07 v -3.69 h 34.31 z"
         id="path48"
         style="fill:#ffffff" />
      <path
         d="m 1323.28,287.65859 v 3.69 h -28.41 v -42.29 h 27.88 v 3.69 H 1299 v 15.24 h 20.67 v 3.51 H 1299 v 16.15 z"
         id="path50"
         style="fill:#ffffff" />
      <path
         d="m 1369.92,269.90859 a 22.72,22.72 0 0 1 1.34,-7.6 21.38,21.38 0 0 1 3.9,-6.76 20.15,20.15 0 0 1 6.32,-4.85 18.8,18.8 0 0 1 8.52,-1.88 17.59,17.59 0 0 1 9.67,2.56 15.6,15.6 0 0 1 5.93,6.67 l -3.28,2 a 12.39,12.39 0 0 0 -2.47,-3.52 13.89,13.89 0 0 0 -3.12,-2.32 13.65,13.65 0 0 0 -3.46,-1.28 16.41,16.41 0 0 0 -3.51,-0.39 14.16,14.16 0 0 0 -6.73,1.55 15.54,15.54 0 0 0 -4.92,4.05 17.87,17.87 0 0 0 -3,5.63 20.64,20.64 0 0 0 -1,6.34 18.94,18.94 0 0 0 1.22,6.74 19.13,19.13 0 0 0 3.34,5.68 16.09,16.09 0 0 0 5,3.94 13.78,13.78 0 0 0 6.29,1.45 15.63,15.63 0 0 0 3.66,-0.44 14.36,14.36 0 0 0 3.63,-1.43 15.53,15.53 0 0 0 3.25,-2.44 12.92,12.92 0 0 0 2.5,-3.55 l 3.45,1.79 a 12.82,12.82 0 0 1 -2.85,4.2 19.49,19.49 0 0 1 -4.11,3.07 20.36,20.36 0 0 1 -4.8,1.9 19.7,19.7 0 0 1 -5,0.66 16.91,16.91 0 0 1 -8,-1.91 21,21 0 0 1 -6.26,-5 23,23 0 0 1 -4.08,-7 22.58,22.58 0 0 1 -1.43,-7.86 z"
         id="path52"
         style="fill:#ffffff" />
      <path
         d="m 1485.66,252.74859 h -15.07 v 38.6 h -4.17 v -38.6 h -15.07 v -3.69 h 34.31 z"
         id="path54"
         style="fill:#ffffff" />
      <path
         d="m 1549.51,291.64859 a 17.91,17.91 0 0 1 -8.07,-1.82 20.08,20.08 0 0 1 -6.29,-4.82 22.08,22.08 0 0 1 -4.05,-6.88 22.77,22.77 0 0 1 -1.43,-7.93 22.45,22.45 0 0 1 5.72,-14.95 20.4,20.4 0 0 1 6.31,-4.73 17.9,17.9 0 0 1 7.87,-1.76 17.44,17.44 0 0 1 8.07,1.88 20.24,20.24 0 0 1 6.25,4.91 22.67,22.67 0 0 1 4,6.88 22.12,22.12 0 0 1 1.43,7.83 22.47,22.47 0 0 1 -5.69,14.92 20,20 0 0 1 -6.28,4.71 17.82,17.82 0 0 1 -7.84,1.76 z m -15.67,-21.45 a 19.85,19.85 0 0 0 1.13,6.65 18.1,18.1 0 0 0 3.22,5.65 16,16 0 0 0 4.94,3.94 13.86,13.86 0 0 0 6.38,1.45 13.67,13.67 0 0 0 6.49,-1.54 16,16 0 0 0 4.94,-4.05 18.72,18.72 0 0 0 3.13,-5.66 19.49,19.49 0 0 0 -0.06,-13.08 18.33,18.33 0 0 0 -3.24,-5.63 16.21,16.21 0 0 0 -5,-3.9 13.7,13.7 0 0 0 -6.31,-1.46 13.86,13.86 0 0 0 -6.49,1.52 15.52,15.52 0 0 0 -5,4 18.93,18.93 0 0 0 -3.13,5.66 19.53,19.53 0 0 0 -1,6.45 z"
         id="path56"
         style="fill:#ffffff" />
    </g>
    <g
       id="g844">
      <path
         class="cls-1"
         d="m 541.18,201.63859 a 107.82,107.82 0 0 1 -206.32,0 h -64.27 a 170.34,170.34 0 0 0 334.86,0 z"
         id="path6"
         style="fill:#999999;fill-opacity:1" />
      <path
         class="cls-2"
         d="m 270.59,201.63859 a 107.82,107.82 0 0 1 -206.31,0 H 0 a 170.34,170.34 0 0 0 334.86,0 z"
         id="path8"
         style="fill:#ff3c00;fill-opacity:1" />
      <path
         class="cls-2"
         d="m 64.28,138.98859 a 107.81,107.81 0 0 1 206.31,0 h 64.27 a 170.34,170.34 0 0 0 -334.86,0 z"
         id="path10"
         style="fill:#ff3c00;fill-opacity:1" />
      <rect
         class="cls-2"
         x="270.59"
         y="201.63858"
         width="64.279999"
         height="138.99001"
         id="rect12"
         style="fill:#ff3c00;fill-opacity:1" />
      <path
         class="cls-1"
         d="m 334.86,138.98859 a 107.82,107.82 0 0 1 206.32,0 h 64.27 a 170.34,170.34 0 0 0 -334.86,0 z"
         id="path58"
         style="fill:#999999;fill-opacity:1" />
    </g>
  </g>
</svg>
